<svg id="visual" viewBox="0 0 900 675" width="900" height="675" xmlns="http://www.w3.org/2000/svg" xmlns:xlink="http://www.w3.org/1999/xlink" version="1.1"><rect x="0" y="0" width="900" height="675" fill="#001220"></rect><path d="M0 373L21.5 381.8C43 390.7 86 408.3 128.8 389.2C171.7 370 214.3 314 257.2 303.2C300 292.3 343 326.7 385.8 339.2C428.7 351.7 471.3 342.3 514.2 323C557 303.7 600 274.3 642.8 262.5C685.7 250.7 728.3 256.3 771.2 259C814 261.7 857 261.3 878.5 261.2L900 261L900 676L878.5 676C857 676 814 676 771.2 676C728.3 676 685.7 676 642.8 676C600 676 557 676 514.2 676C471.3 676 428.7 676 385.8 676C343 676 300 676 257.2 676C214.3 676 171.7 676 128.8 676C86 676 43 676 21.5 676L0 676Z" fill="#fa7268"></path><path d="M0 263L21.5 275.2C43 287.3 86 311.7 128.8 326.3C171.7 341 214.3 346 257.2 356.2C300 366.3 343 381.7 385.8 375C428.7 368.3 471.3 339.7 514.2 339C557 338.3 600 365.7 642.8 368C685.7 370.3 728.3 347.7 771.2 356C814 364.3 857 403.7 878.5 423.3L900 443L900 676L878.5 676C857 676 814 676 771.2 676C728.3 676 685.7 676 642.8 676C600 676 557 676 514.2 676C471.3 676 428.7 676 385.8 676C343 676 300 676 257.2 676C214.3 676 171.7 676 128.8 676C86 676 43 676 21.5 676L0 676Z" fill="#f16367"></path><path d="M0 372L21.5 380.2C43 388.3 86 404.7 128.8 417.2C171.7 429.7 214.3 438.3 257.2 451.8C300 465.3 343 483.7 385.8 471C428.7 458.3 471.3 414.7 514.2 386.3C557 358 600 345 642.8 341.3C685.7 337.7 728.3 343.3 771.2 370.8C814 398.3 857 447.7 878.5 472.3L900 497L900 676L878.5 676C857 676 814 676 771.2 676C728.3 676 685.7 676 642.8 676C600 676 557 676 514.2 676C471.3 676 428.7 676 385.8 676C343 676 300 676 257.2 676C214.3 676 171.7 676 128.8 676C86 676 43 676 21.5 676L0 676Z" fill="#e85467"></path><path d="M0 439L21.5 456.5C43 474 86 509 128.8 519C171.7 529 214.3 514 257.2 504.7C300 495.3 343 491.7 385.8 473.7C428.7 455.7 471.3 423.3 514.2 427.3C557 431.3 600 471.7 642.8 482.5C685.7 493.3 728.3 474.7 771.2 470.8C814 467 857 478 878.5 483.5L900 489L900 676L878.5 676C857 676 814 676 771.2 676C728.3 676 685.7 676 642.8 676C600 676 557 676 514.2 676C471.3 676 428.7 676 385.8 676C343 676 300 676 257.2 676C214.3 676 171.7 676 128.8 676C86 676 43 676 21.5 676L0 676Z" fill="#de4467"></path><path d="M0 560L21.5 551.7C43 543.3 86 526.7 128.8 527.8C171.7 529 214.3 548 257.2 561.8C300 575.7 343 584.3 385.8 569.8C428.7 555.3 471.3 517.7 514.2 501.8C557 486 600 492 642.8 498.3C685.7 504.7 728.3 511.3 771.2 511.8C814 512.3 857 506.7 878.5 503.8L900 501L900 676L878.5 676C857 676 814 676 771.2 676C728.3 676 685.7 676 642.8 676C600 676 557 676 514.2 676C471.3 676 428.7 676 385.8 676C343 676 300 676 257.2 676C214.3 676 171.7 676 128.8 676C86 676 43 676 21.5 676L0 676Z" fill="#d23467"></path><path d="M0 581L21.5 584.2C43 587.3 86 593.7 128.8 603C171.7 612.3 214.3 624.7 257.2 622C300 619.3 343 601.7 385.8 600.7C428.7 599.7 471.3 615.3 514.2 623C557 630.7 600 630.3 642.8 624C685.7 617.7 728.3 605.3 771.2 593.7C814 582 857 571 878.5 565.5L900 560L900 676L878.5 676C857 676 814 676 771.2 676C728.3 676 685.7 676 642.8 676C600 676 557 676 514.2 676C471.3 676 428.7 676 385.8 676C343 676 300 676 257.2 676C214.3 676 171.7 676 128.8 676C86 676 43 676 21.5 676L0 676Z" fill="#c62368"></path></svg>